<svg xmlns="http://www.w3.org/2000/svg" width="920" height="640" viewBox="0 0 920 640" role="img" aria-labelledby="title desc">
  <title id="title">SecureCheck copy AI prompt flow</title>
  <desc id="desc">Demo screenshot showing a copy-ready AI remediation prompt.</desc>
  <defs>
    <linearGradient id="page" x1="0" y1="0" x2="1" y2="1">
      <stop offset="0" stop-color="#f4f7fb"/>
      <stop offset="1" stop-color="#e6edf6"/>
    </linearGradient>
    <linearGradient id="accent" x1="0" y1="0" x2="1" y2="1">
      <stop offset="0" stop-color="#5e6ad2"/>
      <stop offset="1" stop-color="#9aa6ff"/>
    </linearGradient>
    <filter id="shadow" x="-20%" y="-20%" width="140%" height="140%">
      <feDropShadow dx="0" dy="22" stdDeviation="26" flood-color="#1b2437" flood-opacity=".24"/>
    </filter>
  </defs>
  <rect width="920" height="640" fill="url(#page)"/>
  <rect x="90" y="68" width="740" height="504" rx="18" fill="#ffffff" stroke="#d9e1ec"/>
  <rect x="124" y="100" width="668" height="482" rx="14" fill="#0d0f14" filter="url(#shadow)"/>
  <rect x="124" y="100" width="668" height="64" rx="14" fill="#13161d"/>
  <rect x="124" y="150" width="668" height="1" fill="#2a3140"/>
  <g transform="translate(150 114)">
    <path d="M24 2 42 9v17c0 14-10 24-18 28C14 50 6 40 6 26V9Z" fill="#111523" stroke="#8b96f0" stroke-width="2"/>
    <rect x="10" y="25" width="28" height="3" rx="1.5" fill="url(#accent)"/>
    <circle cx="24" cy="27" r="2.5" fill="#c0c8ff"/>
  </g>
  <text x="210" y="130" fill="#f0f3ff" font-family="Inter, Arial, sans-serif" font-size="21" font-weight="700">SecureCheck</text>
  <text x="210" y="148" fill="#8b96f0" font-family="Inter, Arial, sans-serif" font-size="13" font-weight="600">For Vibe Coding</text>
  <g transform="translate(176 188)">
    <rect width="568" height="50" rx="11" fill="#171d2a" stroke="#5e6ad2" stroke-width="1.5"/>
    <text x="168" y="31" fill="#d8deff" font-family="Inter, Arial, sans-serif" font-size="18" font-weight="800">Copy All Issues for AI</text>
  </g>
  <g transform="translate(176 268)">
    <rect width="568" height="250" rx="12" fill="#141923" stroke="#2d3547"/>
    <rect x="0" y="0" width="568" height="42" rx="12" fill="#1a2030"/>
    <text x="20" y="27" fill="#f0f3ff" font-family="Inter, Arial, sans-serif" font-size="16" font-weight="800">Copied remediation request</text>
    <text x="20" y="70" fill="#cbd5e1" font-family="SFMono-Regular, Menlo, monospace" font-size="13">SecureCheck Security Report</text>
    <text x="20" y="96" fill="#8fa1b8" font-family="SFMono-Regular, Menlo, monospace" font-size="13">Found 5 issues | Security Score: 56/100</text>
    <text x="20" y="122" fill="#8fa1b8" font-family="SFMono-Regular, Menlo, monospace" font-size="13">Tech Stack: Vite, Netlify</text>
    <text x="20" y="158" fill="#ef4444" font-family="SFMono-Regular, Menlo, monospace" font-size="13" font-weight="700">Critical: API key exposed in frontend source</text>
    <text x="20" y="184" fill="#cbd5e1" font-family="SFMono-Regular, Menlo, monospace" font-size="13">Please revoke the key, move calls server-side,</text>
    <text x="20" y="210" fill="#cbd5e1" font-family="SFMono-Regular, Menlo, monospace" font-size="13">and show exact code changes for this stack.</text>
  </g>
  <g transform="translate(284 544)">
    <rect width="352" height="44" rx="22" fill="#10261b" stroke="#2e7d4f"/>
    <text x="68" y="28" fill="#4ade80" font-family="Inter, Arial, sans-serif" font-size="16" font-weight="800">Copied. Paste into Codex.</text>
  </g>
  <text x="98" y="604" fill="#56657a" font-family="Inter, Arial, sans-serif" font-size="15" font-weight="700">AI prompt flow</text>
  <text x="210" y="604" fill="#718096" font-family="Inter, Arial, sans-serif" font-size="15">Findings become actionable prompts without sending data to an AI provider.</text>
</svg>
