<svg xmlns="http://www.w3.org/2000/svg" width="920" height="640" viewBox="0 0 920 640" role="img" aria-labelledby="title desc">
  <title id="title">SecureCheck initial popup state</title>
  <desc id="desc">Demo screenshot of the SecureCheck popup before a scan starts.</desc>
  <defs>
    <linearGradient id="page" x1="0" y1="0" x2="1" y2="1">
      <stop offset="0" stop-color="#f3f7fb"/>
      <stop offset="1" stop-color="#e8edf5"/>
    </linearGradient>
    <linearGradient id="accent" x1="0" y1="0" x2="1" y2="1">
      <stop offset="0" stop-color="#6e7de8"/>
      <stop offset="1" stop-color="#9aa6ff"/>
    </linearGradient>
    <filter id="shadow" x="-20%" y="-20%" width="140%" height="140%">
      <feDropShadow dx="0" dy="22" stdDeviation="26" flood-color="#1b2437" flood-opacity=".24"/>
    </filter>
  </defs>
  <rect width="920" height="640" fill="url(#page)"/>
  <rect x="90" y="68" width="740" height="504" rx="18" fill="#ffffff" stroke="#d9e1ec"/>
  <rect x="124" y="100" width="668" height="420" rx="14" fill="#0d0f14" filter="url(#shadow)"/>
  <rect x="124" y="100" width="668" height="64" rx="14" fill="#13161d"/>
  <rect x="124" y="150" width="668" height="1" fill="#2a3140"/>
  <g transform="translate(150 114)">
    <path d="M24 2 42 9v17c0 14-10 24-18 28C14 50 6 40 6 26V9Z" fill="#111523" stroke="#8b96f0" stroke-width="2"/>
    <rect x="10" y="25" width="28" height="3" rx="1.5" fill="url(#accent)"/>
    <circle cx="24" cy="27" r="2.5" fill="#c0c8ff"/>
  </g>
  <text x="210" y="130" fill="#f0f3ff" font-family="Inter, Arial, sans-serif" font-size="21" font-weight="700">SecureCheck</text>
  <text x="210" y="148" fill="#8b96f0" font-family="Inter, Arial, sans-serif" font-size="13" font-weight="600">For Vibe Coding</text>
  <rect x="695" y="119" width="68" height="26" rx="5" fill="#151a24" stroke="#465166"/>
  <text x="710" y="136" fill="#c0ccd8" font-family="Inter, Arial, sans-serif" font-size="13" font-weight="600">EN / ZH</text>
  <rect x="188" y="238" width="536" height="42" rx="8" fill="#1a1e28" stroke="#313849"/>
  <text x="224" y="265" fill="#a0adc4" font-family="SFMono-Regular, Menlo, monospace" font-size="16">https://vibe-shop.example</text>
  <text x="248" y="326" fill="#c7d0e1" font-family="Inter, Arial, sans-serif" font-size="21" font-weight="600">Scan your AI-built, vibe-coded site</text>
  <text x="318" y="354" fill="#9aa7ba" font-family="Inter, Arial, sans-serif" font-size="17">for browser-visible security risks.</text>
  <rect x="334" y="398" width="252" height="52" rx="9" fill="url(#accent)"/>
  <text x="389" y="431" fill="#ffffff" font-family="Inter, Arial, sans-serif" font-size="18" font-weight="700">Scan This Site</text>
  <text x="338" y="496" fill="#6b7890" font-family="Inter, Arial, sans-serif" font-size="12">SecureCheck - GitHub - Privacy - v1.0.0</text>
  <text x="98" y="604" fill="#56657a" font-family="Inter, Arial, sans-serif" font-size="15" font-weight="700">Initial state</text>
  <text x="198" y="604" fill="#718096" font-family="Inter, Arial, sans-serif" font-size="15">User starts a local scan from the active website tab.</text>
</svg>
